<?xml version="1.0" encoding="utf-8"?>
<!-- Generator: Adobe Illustrator 24.0.2, SVG Export Plug-In . SVG Version: 6.00 Build 0)  -->
<svg version="1.1" id="Слой_1" xmlns="http://www.w3.org/2000/svg" xmlns:xlink="http://www.w3.org/1999/xlink" x="0px" y="0px"
	 viewBox="0 0 385.7 92.4" style="enable-background:new 0 0 385.7 92.4;" xml:space="preserve">
<style type="text/css">
	.st0{fill:#FFFFFF;}
</style>
<path class="st0" d="M87.4,55.1c-0.5-0.6-0.9-1.1-1.4-1.5c-3.2-3.2-7.2-4.2-11.6-3.7c-5.1,0.6-10.1,2.1-15.2,3
	C57,53.3,55,53,53,52.1c-1.3-0.6-1.6-1.4-1-2.7c0.8-1.9,2.1-3.5,4.1-4.2c1.4-0.5,2.8-1,4.2-1.5c-3-4.9-7.5-7.7-12.6-5.3
	c-1.1,0.5-2.2,1.1-3.3,1.8c-0.5,0.3-1,0.7-1.6,1c-2.6,1.5-3.6,1.1-4.5-1.7c-1.2-3.4-1.5-7-1.8-10.6c-0.3-3.8-0.5-7.7-2.1-11.2
	c-2.1-4.6-5.7-7.1-10.6-8c-0.5-0.1-1-0.2-1.5-0.3c12.7-9.1,32.6-10.6,48,0C87.4,21.2,91.4,41.3,87.4,55.1z"/>
<path class="st0" d="M332.1,21.1c0,6,0.1,12.1,0,18.1c-0.1,5.3-1.1,10.4-4.3,14.9c-3.5,4.9-8.3,7.8-14.1,8.9
	c-6.1,1.2-12.2,0.7-17.9-1.9c-7-3.1-11.1-8.7-12.8-16.1c-0.7-3.2-0.9-6.4-0.9-9.6c0-10.8,0-21.6,0-32.4c0-1,0.2-1.4,1.3-1.3
	c2.7,0.1,5.5,0.1,8.2,0c1,0,1.3,0.2,1.3,1.3c0,11.1-0.1,22.1,0,33.2c0,4.2,0.9,8.3,3.5,11.9c2.2,3.1,5.3,4.8,9.2,5.3
	c3,0.4,6,0.2,8.7-1.2c4-2,5.7-5.6,6.6-9.7c0.5-2.5,0.7-5,0.7-7.6c0-10.6,0-21.2,0-31.8c0-1.2,0.3-1.4,1.4-1.4c2.7,0.1,5.4,0.1,8.1,0
	c0.9,0,1.1,0.2,1.1,1.1C332.1,9,332.2,15.1,332.1,21.1L332.1,21.1z"/>
<path class="st0" d="M47.1,87.2c-10.1-0.1-18.5-2.8-26-8.1c-0.8-0.5-0.9-0.9-0.3-1.7c4.2-5.6,8.6-11,14.2-15.3
	c2-1.5,4.3-2.5,6.5-3.4c2-0.8,4-1.6,5.8-2.8c0.9-0.6,1.5-0.2,2.1,0.4c2.5,2.4,5.4,3.8,8.8,4.4c3.5,0.6,7.1,0.5,10.7,0.2
	c5-0.4,10-0.6,14.9,0.9c0.9,0.3,1.2,0.5,0.7,1.5C77.9,76.2,67.4,84,53.1,86.7C50.8,87.1,48.5,87.3,47.1,87.2z"/>
<path class="st0" d="M362,0.9c5.2,0.1,10.3,1,14.6,4.2c2.7,2,2.7,2,0.8,4.7c-1.1,1.6-2.3,3.1-3.3,4.7c-0.4,0.7-0.7,0.9-1.5,0.2
	c-2.8-2.6-6.2-3.8-10.1-3.9c-1.3,0-2.7,0.2-3.9,0.6c-2.5,0.9-4.2,2.6-4.5,5.2s0.7,4.9,2.6,6.6c2.3,2,5.2,3.2,8,4.4
	c3.4,1.5,6.9,3.1,10,5.2c4.4,2.9,6.5,7.2,6.8,12.4c0.7,10.2-6.9,16.2-14.9,17.8c-6.5,1.3-12.7,0.3-18.6-2.6c-2.5-1.2-4.6-3-6.1-5.4
	c-0.4-0.7-0.5-1.2,0.1-1.9c1.6-1.8,3.2-3.8,4.8-5.7c0.5-0.6,0.7-0.7,1.3,0c3.7,4.2,8.4,6.1,13.9,6.1c1.7,0,3.4-0.4,4.9-1.3
	c3.7-2.2,4.5-7,1.7-10.2c-1.9-2.2-4.4-3.5-7-4.6c-4-1.8-8-3.6-11.6-6.1c-5.4-3.6-7.6-8.8-7.2-15.2c0.5-7.4,6.7-14.1,15.5-15
	C359.6,1,360.8,0.9,362,0.9z"/>
<path class="st0" d="M17.2,75.8C12.6,71.4,9,66.3,6.7,60.4C0.1,43.8,4.3,25.3,17.4,13.2c0.7-0.7,1-0.5,1.5,0.2
	c2.6,3.3,4,7.2,4.9,11.2c0.9,3.9,1.4,7.8,2.6,11.7c1.3,4.4,3.9,7.7,8.2,9.6c1.6,0.7,1.8,1.4,0.7,2.7c-7.2,8.1-12.8,17.3-17.8,26.9
	C17.4,75.5,17.3,75.6,17.2,75.8z"/>
<path class="st0" d="M108.1,32.2c0-9.6,0-19.2,0-28.9c0-1.2,0.4-1.5,1.5-1.4c2.6,0.1,5.2,0.1,7.8,0c1.1,0,1.4,0.2,1.4,1.4
	c0,15.4,0,30.9,0,46.3c0,1-0.4,2.3,0.2,3c0.7,0.7,2,0.2,3,0.2c7.6,0,15.2,0,22.8,0c1.1,0,1.3,0.3,1.3,1.3c-0.1,2.5,0,5.1,0,7.7
	c0,0.7-0.2,1-1,1c-12,0-24,0-36,0c-1,0-1-0.5-1-1.2C108.1,51.7,108.1,42,108.1,32.2z"/>
<path class="st0" d="M272.4,62.2c-5.9-7.7-11.8-15.5-17.8-23.2c-0.7-0.8-0.5-1.1,0.4-1.5c4.9-2.3,8.3-5.8,9.8-11.1
	c0.8-2.8,0.9-5.7,0.6-8.7c-0.7-6.2-3.4-10.9-9.2-13.6c-3.6-1.7-7.5-2.3-11.5-2.3c-5.5-0.1-11,0-16.5,0.1c-1,0-2.3-0.5-2.9,0.2
	c-0.6,0.6-0.2,1.8-0.2,2.8c0,18.8,0,37.5,0,56.3c0,1.3,0.3,1.5,1.5,1.5c2.6-0.1,5.3-0.1,7.9,0c1,0,1.3-0.2,1.3-1.3
	c0-6.8,0-13.7,0-20.5c0-0.9,0.2-1.1,1.1-1.1c1.6,0.1,3.2,0.1,4.8,0c1.1-0.1,1.8,0.3,2.4,1.2c5.1,7,10.2,13.9,15.3,20.8
	c0.3,0.5,0.6,0.9,1.3,0.9c4,0,8,0,12.2,0C272.7,62.4,272.6,62.2,272.4,62.2z M248.3,29.1c-1.8,0.7-3.7,1-5.6,0.9
	c-1.9,0-3.8-0.1-5.8,0c-0.9,0-1.1-0.2-1.1-1.1c0.1-2.6,0-5.3,0-7.9c0-2.7,0-5.5,0-8.2c0-0.5-0.1-1,0.7-0.9c3.4,0.1,6.8-0.4,10.2,0.2
	c4.7,0.8,7.3,3.3,7.7,7.6C254.8,24,252.5,27.5,248.3,29.1z"/>
<path class="st0" d="M215.3,61.4c-3.1-7.4-6.3-14.9-9.4-22.3c-5-12-10.1-24.1-15.2-36.2c-0.3-0.8-0.6-1.1-1.5-1.1
	c-2.4,0.1-4.7,0.1-7.1,0c-0.9-0.1-1.3,0.2-1.7,1.1C172.2,22.4,164,42,155.9,61.6c-0.2,0.3-0.4,0.7-0.3,1.1c3.3,0,6.6,0,9.9,0
	c0.7,0,0.8-0.4,1-0.9c1.8-4.5,3.7-9,5.5-13.6c0.3-0.9,0.8-1.1,1.7-1.1c7.8,0,15.5,0.1,23.3,0c1,0,1.5,0.3,1.9,1.3
	c1.7,4.5,3.6,8.9,5.4,13.4c0.2,0.4,0.2,0.9,0.9,0.9c3.5,0,7.1,0,10.8,0C215.8,62.1,215.6,61.7,215.3,61.4z M193,37.3
	c-5.2,0-10.3,0-15.5,0c-0.6,0-1.1,0-0.7-0.8c2.8-6.7,5.6-13.5,8.4-20.2c0-0.3,0.1-0.3,0.1-0.5c0.6,0.8,0.8,1.7,1.2,2.6
	c2.4,5.9,4.8,11.8,7.3,17.7C194.2,37.1,194,37.3,193,37.3z"/>
<g>
	<path class="st0" d="M122.3,87.3h-13.6v-9.6h2v8h3.7v-8h2v8h3.7v-8h2v9.6H122.3z"/>
	<path class="st0" d="M131.2,77.7h2.2l-4,4.6l4.3,5h-2.3l-4.1-4.9v4.9h-2v-9.6h2v4.6L131.2,77.7z"/>
	<path class="st0" d="M143.8,82.5c0,1.6-0.4,2.8-1.2,3.7c-0.8,0.9-1.9,1.3-3.3,1.3c-0.9,0-1.7-0.2-2.4-0.6s-1.2-1-1.6-1.7
		s-0.6-1.6-0.6-2.6c0-1.6,0.4-2.8,1.2-3.6c0.8-0.9,1.9-1.3,3.4-1.3c1.4,0,2.5,0.4,3.3,1.3S143.8,80.9,143.8,82.5z M136.9,82.5
		c0,2.2,0.8,3.3,2.4,3.3c1.6,0,2.4-1.1,2.4-3.3c0-2.2-0.8-3.3-2.4-3.3c-0.9,0-1.5,0.3-1.9,0.8C137.1,80.6,136.9,81.4,136.9,82.5z"/>
	<path class="st0" d="M154,87.3h-2v-8h-2.6c-0.2,2.1-0.4,3.7-0.7,4.8c-0.3,1.2-0.6,2-1.1,2.5c-0.4,0.5-1,0.8-1.7,0.8
		c-0.4,0-0.8-0.1-1.1-0.2v-1.6c0.2,0.1,0.4,0.1,0.6,0.1c0.6,0,1.1-0.7,1.4-2s0.6-3.4,0.8-6.1h6.4L154,87.3L154,87.3z"/>
	<path class="st0" d="M162.9,87.3l-0.4-1.3h-0.1c-0.5,0.6-0.9,1-1.4,1.2s-1.1,0.3-1.8,0.3c-0.9,0-1.7-0.3-2.2-0.8s-0.8-1.2-0.8-2.2
		s0.4-1.7,1.1-2.2c0.7-0.5,1.8-0.8,3.3-0.8l1.7-0.1v-0.5c0-0.6-0.1-1.1-0.4-1.4s-0.7-0.5-1.3-0.5c-0.5,0-1,0.1-1.4,0.2
		s-0.9,0.3-1.3,0.5l-0.7-1.5c0.5-0.3,1.1-0.5,1.7-0.6c0.6-0.1,1.2-0.2,1.7-0.2c1.2,0,2.1,0.3,2.8,0.8c0.6,0.5,0.9,1.4,0.9,2.5v6.4
		h-1.4V87.3z M159.9,85.9c0.7,0,1.3-0.2,1.8-0.6c0.4-0.4,0.7-1,0.7-1.7v-0.8l-1.2,0.1c-1,0-1.7,0.2-2.1,0.5s-0.7,0.7-0.7,1.3
		c0,0.4,0.1,0.8,0.4,1C159,85.8,159.4,85.9,159.9,85.9z"/>
	<path class="st0" d="M180.2,77.7v9.6h-2v-8h-4.3v8h-2v-9.6H180.2z"/>
	<path class="st0" d="M187,87.4c-1.4,0-2.5-0.4-3.3-1.3c-0.8-0.8-1.1-2.1-1.1-3.6c0-1.6,0.4-2.8,1.2-3.7s1.9-1.3,3.4-1.3
		c1,0,1.9,0.2,2.7,0.6l-0.6,1.6c-0.9-0.3-1.6-0.5-2.1-0.5c-1.7,0-2.5,1.1-2.5,3.3c0,1.1,0.2,1.9,0.6,2.4c0.4,0.5,1,0.8,1.8,0.8
		c0.9,0,1.8-0.2,2.6-0.7v1.8c-0.4,0.2-0.8,0.4-1.2,0.5C188,87.4,187.5,87.4,187,87.4z"/>
	<path class="st0" d="M193.8,77.7v4.9c0,0.6,0,1.4-0.1,2.5l4.8-7.4h2.5v9.6h-2v-4.8c0-0.3,0-0.7,0-1.3c0-0.6,0.1-1,0.1-1.3l-4.8,7.4
		h-2.5v-9.6C191.8,77.7,193.8,77.7,193.8,77.7z"/>
	<path class="st0" d="M206,82.4l-3.2-4.7h2.3l2.2,3.3l2.2-3.3h2.3l-3.2,4.7l3.4,4.9h-2.3l-2.4-3.6l-2.4,3.6h-2.3L206,82.4z"/>
	<path class="st0" d="M222.1,82.5c0,1.6-0.4,2.8-1.2,3.7c-0.8,0.9-1.9,1.3-3.3,1.3c-0.9,0-1.7-0.2-2.4-0.6s-1.2-1-1.6-1.7
		s-0.6-1.6-0.6-2.6c0-1.6,0.4-2.8,1.2-3.6s1.9-1.3,3.4-1.3c1.4,0,2.5,0.4,3.3,1.3C221.7,79.7,222.1,80.9,222.1,82.5z M215.2,82.5
		c0,2.2,0.8,3.3,2.4,3.3c1.6,0,2.4-1.1,2.4-3.3c0-2.2-0.8-3.3-2.4-3.3c-0.9,0-1.5,0.3-1.9,0.8S215.2,81.4,215.2,82.5z"/>
	<path class="st0" d="M232.3,87.3h-2.1v-8h-2.6c-0.2,2.1-0.4,3.7-0.7,4.8c-0.3,1.2-0.6,2-1.1,2.5c-0.4,0.5-1,0.8-1.7,0.8
		c-0.4,0-0.8-0.1-1.1-0.2v-1.6c0.2,0.1,0.4,0.1,0.6,0.1c0.6,0,1.1-0.7,1.4-2s0.6-3.4,0.8-6.1h6.4v9.7H232.3z"/>
	<path class="st0" d="M243.7,82.5c0,1.6-0.4,2.8-1.2,3.7c-0.8,0.9-1.9,1.3-3.3,1.3c-0.9,0-1.7-0.2-2.4-0.6s-1.2-1-1.6-1.7
		s-0.6-1.6-0.6-2.6c0-1.6,0.4-2.8,1.2-3.6s1.9-1.3,3.4-1.3c1.4,0,2.5,0.4,3.3,1.3C243.3,79.7,243.7,80.9,243.7,82.5z M236.8,82.5
		c0,2.2,0.8,3.3,2.4,3.3c1.6,0,2.4-1.1,2.4-3.3c0-2.2-0.8-3.3-2.4-3.3c-0.9,0-1.5,0.3-1.9,0.8S236.8,81.4,236.8,82.5z"/>
	<path class="st0" d="M252.2,77.7v1.6H248v8h-2v-9.6H252.2z"/>
	<path class="st0" d="M256,77.7v4.9c0,0.6,0,1.4-0.1,2.5l4.8-7.4h2.5v9.6h-2v-4.8c0-0.3,0-0.7,0-1.3c0-0.6,0.1-1,0.1-1.3l-4.8,7.4
		H254v-9.6C254,77.7,256,77.7,256,77.7z"/>
	<path class="st0" d="M268,77.7v4.9c0,0.6,0,1.4-0.1,2.5l4.8-7.4h2.5v9.6h-2v-4.8c0-0.3,0-0.7,0-1.3c0-0.6,0.1-1,0.1-1.3l-4.8,7.4
		H266v-9.6C266,77.7,268,77.7,268,77.7z"/>
	<path class="st0" d="M284.6,77.7v4.9c0,0.6,0,1.4-0.1,2.5l4.8-7.4h2.5v9.6h-2v-4.8c0-0.3,0-0.7,0-1.3c0-0.6,0.1-1,0.1-1.3l-4.8,7.4
		h-2.5v-9.6C282.6,77.7,284.6,77.7,284.6,77.7z"/>
	<path class="st0" d="M304.1,87.4c-1.2,0-2.2-0.4-2.8-1.3h-0.1c0.1,0.8,0.1,1.3,0.1,1.5v3.9h-2V77.7h1.6c0,0.2,0.1,0.6,0.3,1.3h0.1
		c0.6-1,1.6-1.5,2.9-1.5c1.2,0,2.1,0.4,2.8,1.3c0.7,0.9,1,2.1,1,3.6s-0.3,2.8-1,3.7S305.3,87.4,304.1,87.4z M303.6,79.2
		c-0.8,0-1.4,0.2-1.8,0.7s-0.6,1.2-0.6,2.3v0.3c0,1.2,0.2,2,0.6,2.5s1,0.8,1.8,0.8c0.7,0,1.2-0.3,1.6-0.9s0.6-1.4,0.6-2.5
		s-0.2-1.9-0.6-2.4C304.9,79.4,304.4,79.2,303.6,79.2z"/>
	<path class="st0" d="M316.3,87.3l-0.4-1.3h-0.1c-0.5,0.6-0.9,1-1.4,1.2s-1.1,0.3-1.8,0.3c-0.9,0-1.7-0.3-2.2-0.8s-0.8-1.2-0.8-2.2
		s0.4-1.7,1.1-2.2s1.8-0.8,3.3-0.8l1.7-0.1v-0.5c0-0.6-0.1-1.1-0.4-1.4S314.6,79,314,79c-0.5,0-1,0.1-1.4,0.2
		c-0.5,0.1-0.9,0.3-1.3,0.5l-0.7-1.5c0.5-0.3,1.1-0.5,1.7-0.6s1.2-0.2,1.7-0.2c1.2,0,2.1,0.3,2.8,0.8s0.9,1.4,0.9,2.5v6.4h-1.4V87.3
		z M313.3,85.9c0.7,0,1.3-0.2,1.8-0.6c0.4-0.4,0.7-1,0.7-1.7v-0.8l-1.2,0.1c-1,0-1.7,0.2-2.1,0.5s-0.7,0.7-0.7,1.3
		c0,0.4,0.1,0.8,0.4,1S312.8,85.9,313.3,85.9z"/>
	<path class="st0" d="M322.7,81.5c0.9,0,1.6-0.1,2.1-0.3c0.4-0.2,0.7-0.5,0.7-0.9c0-0.8-0.7-1.2-2.1-1.2c-0.9,0-1.9,0.2-2.8,0.6
		l-0.7-1.5c1.1-0.5,2.3-0.7,3.7-0.7c1.2,0,2.1,0.2,2.8,0.7c0.7,0.4,1,1.1,1,1.9c0,1.1-0.6,1.8-1.8,2.1v0.1c0.8,0.2,1.3,0.5,1.6,0.9
		c0.3,0.4,0.5,0.9,0.5,1.4c0,0.9-0.4,1.6-1.2,2.1c-0.8,0.5-1.8,0.8-3.2,0.8c-1.5,0-2.7-0.2-3.5-0.6v-1.8c1.1,0.5,2.1,0.7,3.3,0.7
		c0.8,0,1.4-0.1,1.9-0.3s0.7-0.6,0.7-1c0-0.5-0.2-0.8-0.7-1.1s-1.1-0.3-2.1-0.3h-1.2v-1.5L322.7,81.5L322.7,81.5z"/>
	<path class="st0" d="M338.1,80.1c0,1.1-0.7,1.8-2,2.1v0.1c0.7,0.1,1.3,0.3,1.7,0.7c0.4,0.4,0.6,0.9,0.6,1.5c0,0.9-0.3,1.6-1,2.1
		s-1.7,0.7-3,0.7h-4.6v-9.6h4.6C336.9,77.7,338.1,78.5,338.1,80.1z M336.1,80.3c0-0.4-0.1-0.7-0.4-0.8c-0.3-0.2-0.7-0.3-1.3-0.3
		h-2.5v2.3h2.2c0.7,0,1.2-0.1,1.5-0.3S336.1,80.8,336.1,80.3z M336.3,84.3c0-0.5-0.2-0.8-0.5-1s-0.9-0.3-1.6-0.3h-2.3v2.7h2.4
		C335.6,85.8,336.3,85.3,336.3,84.3z"/>
	<path class="st0" d="M342.5,77.7v4.9c0,0.6,0,1.4-0.1,2.5l4.8-7.4h2.5v9.6h-2v-4.8c0-0.3,0-0.7,0-1.3c0-0.6,0.1-1,0.1-1.3l-4.8,7.4
		h-2.5v-9.6C340.5,77.7,342.5,77.7,342.5,77.7z"/>
	<path class="st0" d="M359.7,77.7v1.6h-3.1v8h-2v-8h-3.1v-1.6H359.7z"/>
	<path class="st0" d="M363.5,77.7v4.9c0,0.6,0,1.4-0.1,2.5l4.8-7.4h2.5v9.6h-2v-4.8c0-0.3,0-0.7,0-1.3c0-0.6,0.1-1,0.1-1.3l-4.8,7.4
		h-2.5v-9.6C361.5,77.7,363.5,77.7,363.5,77.7z"/>
	<path class="st0" d="M374.5,87.3h-2.3l2.7-3.9c-0.6-0.2-1.2-0.5-1.5-1s-0.6-1.1-0.6-1.8c0-0.9,0.3-1.6,1-2.1
		c0.6-0.5,1.5-0.8,2.6-0.8h4.4v9.6h-2v-3.7h-1.9L374.5,87.3z M374.8,80.6c0,0.5,0.2,0.9,0.6,1.1s0.9,0.4,1.5,0.4h1.9v-2.8h-2.2
		c-0.6,0-1,0.1-1.3,0.4C375,79.8,374.8,80.2,374.8,80.6z"/>
</g>
</svg>
